<svg xmlns="http://www.w3.org/2000/svg" xml:space="preserve" width="2000" height="247" data-id="lg_7OGdxFtqjeR8hmQOJ4" data-version="1" viewBox="0 0 2000 247"><g data-padding="20"><g transform="translate(10 4.41)scale(.96429)"><rect width="390.996" height="254.318" x="574.263" y="-127.262" fill="none" rx="0" ry="0" transform="matrix(.97 0 0 .97 370.23 123.6)"/><path fill="#c9efc7" d="M983.543 103.344h-7.964l-28.14-74.167h-.456q.233 2.357.398 5.733.175 3.385.291 7.362.116 3.987.116 8.11v52.962h-9.06V19.555h14.444l26.53 69.685h.407l26.937-69.685h14.327v83.789h-9.632V49.703q0-3.735.116-7.489.116-3.744.29-7.1.166-3.356.34-5.82h-.455Zm83.497-63.962q8.022 0 13.754 3.55 5.723 3.56 8.77 9.942 3.035 6.393 3.035 14.938v5.898h-43.388q.175 11.058 5.5 16.849 5.335 5.79 15.016 5.79 5.965 0 10.544-1.086 4.588-1.096 9.515-3.21v8.361q-4.753 2.124-9.428 3.094-4.666.98-11.029.98-9.06 0-15.792-3.696-6.73-3.695-10.456-10.864-3.725-7.158-3.725-17.537 0-10.146 3.405-17.567 3.414-7.42 9.632-11.426 6.218-4.016 14.647-4.016m-.117 7.799q-7.624 0-12.154 4.985t-5.383 13.92h33.242q-.058-5.616-1.756-9.884-1.688-4.268-5.122-6.645-3.443-2.376-8.827-2.376m64.195 57.307q-11.92 0-18.885-8.138t-6.965-24.182q0-16.219 7.11-24.502 7.11-8.284 18.915-8.284 4.986 0 8.71 1.319 3.725 1.32 6.412 3.521 2.697 2.212 4.53 5.015h.69q-.234-1.775-.457-4.87-.233-3.094-.233-5.043V14.162h9.516v89.182h-7.683l-1.425-8.944h-.408q-1.775 2.804-4.5 5.102-2.717 2.29-6.47 3.638-3.754 1.348-8.857 1.348m1.494-7.915q10.078 0 14.27-5.723 4.18-5.733 4.18-17.023V72.11q0-11.98-3.987-18.401-3.977-6.422-14.463-6.422-8.769 0-13.124 6.742-4.355 6.732-4.355 18.362 0 11.582 4.326 17.887 4.326 6.295 13.153 6.295m47.967-56.047h9.515v62.818h-9.515Zm4.87-23.493q2.346 0 4.034 1.513 1.698 1.523 1.698 4.734 0 3.152-1.698 4.695-1.688 1.552-4.035 1.552-2.464 0-4.093-1.552-1.64-1.543-1.64-4.695 0-3.21 1.64-4.734 1.63-1.513 4.093-1.513m-183.223 116.584v83.78h-9.739v-39.48h-44.009v39.48h-9.748v-83.78h9.748v35.696h44.01v-35.696Zm45.783 19.827q8.022 0 13.755 3.55t8.77 9.943 3.035 14.928v5.907h-43.378q.164 11.058 5.5 16.85 5.325 5.79 15.015 5.79 5.956 0 10.544-1.096 4.588-1.086 9.516-3.21v8.37q-4.763 2.125-9.429 3.095-4.675.98-11.038.98-9.05 0-15.782-3.706-6.742-3.696-10.467-10.854-3.724-7.169-3.724-17.538 0-10.146 3.414-17.566 3.405-7.421 9.632-11.437 6.218-4.006 14.637-4.006m-.116 7.79q-7.624 0-12.144 4.985-4.53 4.986-5.394 13.93h33.242q-.058-5.617-1.746-9.885t-5.13-6.645q-3.435-2.386-8.828-2.386m65.34-7.672q11.232 0 16.674 5.044 5.441 5.034 5.441 16.102v42.69h-6.935l-1.834-9.284h-.455q-2.639 3.444-5.5 5.762-2.87 2.318-6.625 3.492-3.754 1.183-9.196 1.183-5.733 0-10.175-2.007-4.433-2.008-6.984-6.082-2.55-4.065-2.55-10.311 0-9.4 7.45-14.444 7.448-5.044 22.686-5.5l10.835-.456v-3.84q0-8.139-3.492-11.408-3.5-3.269-9.864-3.269-4.928 0-9.4 1.436-4.462 1.435-8.478 3.385l-2.92-7.226q4.24-2.173 9.74-3.725 5.5-1.542 11.581-1.542m12.717 38.683v-5.79l-9.564.397q-11.757.466-16.568 3.841-4.81 3.385-4.81 9.574 0 5.384 3.268 7.964 3.26 2.58 8.652 2.58 8.362 0 13.697-4.646 5.325-4.637 5.325-13.92m38.577-64.02v89.172h-9.564v-89.172Zm40.352 82.528q2.348 0 4.811-.398 2.464-.407 4.016-.98v7.392q-1.668.747-4.617 1.26-2.949.525-5.762.525-4.986 0-9.05-1.756-4.074-1.746-6.509-5.927-2.434-4.18-2.434-11.582v-37.248h-8.944v-4.646l9.002-3.725 3.783-13.638h5.733v14.56h18.39v7.45h-18.39v36.966q0 5.898 2.716 8.827 2.725 2.92 7.255 2.92m21.544-82.528h9.516v26.656q0 2.289-.117 4.607t-.397 4.268h.63q1.95-3.317 4.957-5.587 3.007-2.26 6.848-3.434 3.841-1.173 8.138-1.173 7.566 0 12.64 2.405 5.072 2.406 7.614 7.45 2.55 5.044 2.55 13.066v40.914h-9.398v-40.284q0-7.857-3.58-11.747-3.579-3.899-10.97-3.899-6.994 0-11.146 2.668-4.16 2.657-5.965 7.818t-1.804 12.61v32.834h-9.516Z"/><path fill="#31c48d" d="M823.51 199.48c-42.34-.03-76.66-34.334-76.708-76.675.048-42.34 34.368-76.644 76.708-76.673 42.326.048 76.625 34.347 76.674 76.673-.049 42.327-34.348 76.626-76.674 76.674m0-138.02c-33.865.039-61.308 27.482-61.346 61.347.038 33.857 27.47 61.297 61.33 61.345 33.863-.038 61.306-27.48 61.345-61.346-.039-33.864-27.482-61.307-61.346-61.345"/><path fill="#31c48d" d="M864.563 111.855h-30.12v-30.12h-21.9v30.12h-30.12v21.901h30.12v30.12h21.902v-30.12h30.12Z"/></g><path fill="transparent" stroke="transparent" d="M720 0h560v247H720z"/></g></svg>